<?xml version="1.0" encoding="UTF-8"?>
<svg width="266px" height="454px" viewBox="0 0 266 454" version="1.1" xmlns="http://www.w3.org/2000/svg" xmlns:xlink="http://www.w3.org/1999/xlink">
    <!-- Generator: Sketch 55.2 (78181) - https://sketchapp.com -->
    <title>truffle-yargs</title>
    <desc>Created with Sketch.</desc>
    <g id="Page-1" stroke="none" stroke-width="1" fill="none" fill-rule="evenodd">
        <g id="truffle-yargs" transform="translate(-16.620471, -32.900742)" fill-rule="nonzero">
            <g id="68747470733a2f2f74727566666c656672616d65776f726b2e636f6d2f696d672f74727566666c652d6c6f676f2d6461726b2e737667" transform="translate(16.620471, 99.900742)">
                <polygon id="Fill-12" fill="#5E464D" points="0 240.28 20.95 240.28 20.95 247.39 14.05 247.39 14.05 278.19 6.73 278.19 6.73 247.39 0 247.39"></polygon>
                <path d="M46.31,255.1 L50.6,255.1 C52.9,255.1 54.48,254.8 55.34,254.2 C56.2557442,253.48648 56.7455788,252.356093 56.64,251.2 C56.6641254,250.41751 56.4401056,249.647441 56,249 C55.5798814,248.387685 54.9783257,247.922528 54.28,247.67 C52.9745532,247.33523 51.6258875,247.200363 50.28,247.27 L46.28,247.27 L46.31,255.1 Z M39.09,240.28 L48.77,240.28 C52.9566667,240.28 55.94,240.653333 57.72,241.4 C59.5049487,242.159866 61.0032915,243.465665 62,245.13 C63.1216687,246.98135 63.6874719,249.116129 63.63,251.28 C63.7115143,253.501937 63.0808395,255.691781 61.83,257.53 C60.4730789,259.329428 58.5890437,260.661186 56.44,261.34 L65.44,278.19 L57.53,278.19 L49,262.14 L46.31,262.14 L46.31,278.19 L39.09,278.19 L39.09,240.28 Z" id="Fill-14" fill="#5E464D"></path>
                <path d="M83.77,240.28 L91,240.28 L91,264.8 C90.9171635,266.314809 91.1068362,267.832191 91.56,269.28 C91.9226154,270.159544 92.5660517,270.894398 93.39,271.37 C94.3207326,271.920674 95.3891207,272.194708 96.47,272.16 C97.6242715,272.191661 98.7631608,271.889578 99.75,271.29 C100.61127,270.773013 101.281506,269.990486 101.66,269.06 C102.107013,267.375182 102.285871,265.630471 102.19,263.89 L102.19,240.28 L109.43,240.28 L109.43,262.88 C109.540334,265.542845 109.325413,268.209205 108.79,270.82 C108.297606,272.41147 107.457306,273.873456 106.33,275.1 C105.180147,276.406177 103.746996,277.432299 102.14,278.1 C100.385931,278.801014 98.5085146,279.141126 96.62,279.1 C94.0953215,279.156928 91.6060754,278.498214 89.44,277.2 C87.5449343,276.089038 86.023621,274.438918 85.07,272.46 C84.1966667,270.56 83.76,267.35 83.76,262.83 L83.77,240.28 Z" id="Fill-16" fill="#5E464D"></path>
                <polygon id="Fill-19" fill="#5E464D" points="131.28 240.28 150.1 240.28 150.1 247.31 138.45 247.31 138.45 254.2 150.1 254.2 150.1 261.13 138.45 261.13 138.45 278.19 131.28 278.19"></polygon>
                <polygon id="Fill-21" fill="#5E464D" points="170.07 240.28 188.89 240.28 188.89 247.31 177.24 247.31 177.24 254.2 188.89 254.2 188.89 261.13 177.24 261.13 177.24 278.19 170.07 278.19"></polygon>
                <polygon id="Fill-23" fill="#5E464D" points="208.8 240.28 216.02 240.28 216.02 271.31 226.53 271.31 226.53 278.19 208.8 278.19"></polygon>
                <polygon id="Fill-25" fill="#5E464D" points="244.7 240.28 265.39 240.28 265.39 247.34 251.86 247.34 251.86 254.2 265.39 254.2 265.39 261.13 251.86 261.13 251.86 271.11 265.39 271.11 265.39 278.19 244.7 278.19"></polygon>
                <ellipse id="Oval" fill="#5E464D" cx="132.45" cy="102.14" rx="100.96" ry="102.14"></ellipse>
                <path d="M100.7,192.71 C104.83,194.12 118.7,198.63 119.29,194.22 C119.61,191.8 112.29,189.32 102.38,184.07 C88.2853615,176.620826 75.3911643,167.09429 64.13,155.81 C47.6929039,139.692985 38.2413765,117.766303 37.81,94.75 C36.97,63.85 49.05,38.87 68.92,22.75 C44.6214,41.5045569 30.0734583,70.2146994 29.32,100.9 C28.73,123.25 34.98,142.08 46.72,159.22 C50.3655164,163.928512 54.6269477,168.126038 59.39,171.7 C70.64,180.21 87.09,188.08 100.7,192.7" id="Fill-6" fill="#FFFFFF"></path>
                <path d="M234.8,78.73 C228.54,49.29 209.08,28.68 183.05,14.12 C203,28.29 231,58.42 214.45,85 C200.45,106.29 166.45,102.12 147.8,92 C125.68,80 98,53 125.3,26.61 C143,9.53 199.3,28.68 189.39,54.21 C183.61,69.06 161.11,65.76 150.99,58.5 C143.53,53.14 137.25,43.93 140.58,34.42 C141.64,31.37 141.49,26.64 137.18,30.12 C134,32.72 132.35,37 131.79,41 C127.08,74.29 186.39,100.1 203.99,67.89 C213.12,51.17 198.32,26.89 179.69,16.95 C165.69,9.45 151.12,4.18 133.26,5.46 C104.7,7.46 80.74,25.36 77.73,54.54 C74.73,83.54 94.12,109.64 116.95,125.25 C140.95,141.65 173.21,152.46 202.73,142.68 C229.19,133.91 240.12,103.54 234.8,78.75" id="Fill-8" fill="#FFFFFF"></path>
                <path d="M197.56,56.18 C200.4,37.1 183.15,24 167.22,18.05 C148.44,11.05 123.63,14.11 109.95,29.66 C99.95,41.08 100.6,57.66 105.76,71.08 C113.56,91.35 131.17,106 151.67,112.33 C166.24,116.83 183.85,118.79 198.61,114.04 C220.14,107.11 227.15,84.66 222.7,64.09 C221.747237,59.6431682 220.284216,55.3212155 218.34,51.21 C215.62,45.5 207.29,33.94 218.77,48.02 C219.973361,49.5891613 221.081998,51.2287428 222.09,52.93 C224.458149,56.8202226 226.335752,60.9885685 227.68,65.34 C233.94,84.54 229.03,106.94 211.68,118.53 C198.37,127.4 181.45,128.46 166.01,126.24 C145.31,123.24 125.8,113.24 112.24,97.15 C99.86,82.48 91.41,61.41 96.5,42.15 C100.23,28.06 111.67,17.54 125.37,13.15 C142.7,7.54 161.78,10.15 177.37,19.26 C185.19,23.81 192.37,30.11 196.37,38.37 C198.179182,42.0910488 199.151947,46.1630067 199.22,50.3 C199.259771,51.9755764 199.129099,53.6508555 198.83,55.3 C198.72,55.9 197.45,57.59 197.63,56.2" id="Fill-10" fill="#3FE0C5"></path>
            </g>
            <g id="noun_Pirate-Hat_2777016" transform="translate(109.000000, 80.515740) rotate(-21.000000) translate(-109.000000, -80.515740) translate(11.000000, 32.015740)">
                <path d="M39.3585876,89.5020828 C36.1111218,92.576813 31.011234,95.5710731 34.1453688,95.0538708 C51.9474864,90.5434653 76.9800696,89.0203486 95.1830765,88.8186536 L95.6247902,88.8186536 C113.803665,89.0171971 151.192363,95.0883817 156.232846,95.8587898 C155.635174,94.577077 147.339181,90.171521 146.324615,87.9957776 C145.726943,86.7140648 49.3019007,80.0876635 39.3585876,89.5020828 Z" id="Shape" fill="#FFFFFF" transform="translate(94.698933, 90.197245) rotate(1.000000) translate(-94.698933, -90.197245) "></path>
                <path d="M166.716747,57.4837976 C156.388449,55.8024323 147.301112,49.7602427 141.803872,40.9191746 C138.598956,35.6804269 136.718739,27.8965387 131.932733,19.1582229 C128.275461,12.9388141 122.637986,8.10373483 115.908156,5.4144639 C104.573811,0.431278623 91.6465752,0.431278623 80.31223,5.4144639 C73.5804485,8.10948263 67.9378282,12.9425308 64.2662873,19.1582229 C59.4802804,27.8965387 57.6000635,35.6804269 54.3951482,40.9191746 C48.8973701,49.7692911 39.7991759,55.8135159 29.460907,57.4837976 C20.110434,59.3294665 10.456012,58.9954904 1.25765231,56.5081604 C8.09480497,66.412999 19.4615713,77.9933885 27.5165918,85.5227627 C32.9515921,90.6063233 40.5517215,92.7222495 47.8571209,91.1857004 L47.8571209,91.1857004 C64.2181147,87.7161577 80.8893426,85.8900077 97.6187726,85.7348577 L98.0247286,85.7348577 C114.731981,85.8875835 131.381483,87.7066005 147.722282,91.1644909 L147.722282,91.1644909 C155.027803,92.7047909 162.629672,90.5883804 168.062811,85.5015532 C176.139198,77.9933885 187.570062,66.5614656 194.257652,56.783884 C185.244487,59.0507756 175.834955,59.2899057 166.716747,57.4837976 L166.716747,57.4837976 Z" id="Shape" fill="#C3423F" transform="translate(97.757652, 46.677075) rotate(1.000000) translate(-97.757652, -46.677075) "></path>
            </g>
            <g id="noun_eye-patch_13147" transform="translate(48.620471, 119.900742)">
                <g id="base" transform="translate(1.000000, 0.000000)" fill="#FFFFFF">
                    <path d="M75.5422563,55.7002496 C78.5958492,74.1172087 66.0499573,91.5014202 47.5096413,94.5436572 C28.9693253,97.583654 11.4619086,85.1145147 8.39929462,66.6953153 C5.34570165,48.2783562 20.2235103,44.888883 38.761571,41.8466459 C57.2951213,38.8200906 72.4796423,37.2810502 75.5422563,55.7002496 Z" id="Path"></path>
                    <path d="M4,47 C3.66870802,45.3688149 108.673801,35.3105178 158,0 L167,7 C117.673801,42.3127917 42,59 42,59 C42,59 16.1584261,61.8491261 0,59 L4,47 Z" id="Path"></path>
                </g>
                <g id="Group" transform="translate(0.000000, 1.000000)" fill="#3FE0C5">
                    <path d="M73.5759139,54.5584132 C76.404978,71.6359571 64.7815781,87.7558624 47.6045206,90.5768458 C30.4274631,93.3957519 14.2073565,81.833459 11.3699347,64.7538378 C8.54087065,47.6762939 22.3247227,44.5333278 39.4996908,41.7123444 C56.67048,38.9059022 70.7384922,37.478792 73.5759139,54.5584132 Z" id="Path"></path>
                    <path d="M3,48 C6.69317845,46.733641 117.317213,32.9165844 163,0 L168,4 C122.317213,36.9187041 41.5704395,57.4080681 41.5704395,57.4080681 C41.5704395,57.4080681 14.9649059,59.655965 0,57 L3,48 Z" id="Path"></path>
                </g>
                <g id="Group" transform="translate(0.000000, 1.000000)" fill="#C3423F">
                    <path d="M73.5759139,54.5584132 C76.404978,71.6359571 64.7815781,87.7558624 47.6045206,90.5768458 C30.4274631,93.3957519 14.2073565,81.833459 11.3699347,64.7538378 C8.54087065,47.6762939 22.3247227,44.5333278 39.4996908,41.7123444 C56.67048,38.9059022 70.7384922,37.478792 73.5759139,54.5584132 Z" id="Path"></path>
                    <path d="M3,48 C6.69317845,46.733641 117.317213,32.9165844 163,0 L168,4 C122.317213,36.9187041 41.5704395,57.4080681 41.5704395,57.4080681 C41.5704395,57.4080681 14.9649059,59.655965 0,57 L3,48 Z" id="Path"></path>
                </g>
            </g>
            <g id="base" transform="translate(199.287102, 240.324322) rotate(-56.000000) translate(-199.287102, -240.324322) translate(171.287102, 198.824322)" fill="#FFFFFF">
                <path d="M40.4919663,46.7445755 C41.2789663,46.5609822 41.9882343,46.7846152 42.7092343,46.4552273 C50.2322343,43.0146533 53.6426355,36.9423324 55.3756355,29.4681062 C56.1766355,26.0185325 55.5960872,22.6900761 54.4880872,19.2108035 C53.1970872,15.1537521 51.301617,10.7630163 48.047617,7.87412216 C45.959617,6.02109003 43.3147682,3.09652587 40.5277682,2.09036272 C33.7747682,-0.350347885 28.6064309,0.185935194 22.2304309,3.57611102 C21.2134309,4.11609124 19.7292806,5.04611072 18.9142806,5.81288264 C14.4742806,9.98692975 13.4898447,15.5825743 14.3848447,21.1407707 C14.6098447,22.5312198 15.0208447,23.9081694 15.4848447,25.2518201 C15.7398447,25.9888931 17.5184573,28.6361115 18.7614573,28.8341043 C19.0844573,28.1978276 19.5383395,27.538257 19.8603395,26.8866809 C21.8873395,22.7837312 23.1530188,19.2919267 27.5720188,16.8602157 C31.4910188,14.7020948 34.4936676,14.6039406 35.8818981,14.8737852 C37.2701286,15.1436299 42.4831282,19.0091258 42.3028647,22.6049681 C42.0525236,27.5986971 40.9536414,29.5461204 36.8084535,32.342085 C33.9099829,34.297128 32.0429224,35.5054216 28.7879224,36.5457835 C27.8049224,36.859872 26.6498097,37.3638937 26.3008097,38.2233622 C26.1278097,38.6481467 25.3159275,39.7316017 25.2019275,40.1707856 C24.1259275,44.3079341 22.8073255,48.3648174 22.7733255,52.6648599 C22.7663255,53.5009293 23.1286737,54.0955567 23.0626737,54.8821279 C18.6276737,55.8405928 15.5158447,57.3383449 12.0318447,59.65576 C7.52884467,62.6499504 4.13904503,66.9297839 1.79704503,71.6384115 C1.28604503,72.662574 0.694318124,73.8797054 0.428318124,74.9740653 C-0.024681876,76.8342972 -0.132155331,76.5337418 1.75784467,77.3662113 C4.98284467,78.7899592 8.29884467,80.0823119 11.8298447,80.7005892 C19.7578447,82.0892383 27.7408447,83.1314002 35.8538447,82.343929 C39.8528447,81.9551433 43.8348447,81.4223628 47.8308447,81.0101779 C50.1098447,80.7761864 51.2858447,78.9942517 51.5858447,77.2834144 C52.2478447,73.5062527 51.6808447,69.8019884 50.3488447,66.236319 C48.7898447,62.0658717 45.5258447,59.1310792 41.2298447,57.1097533 C40.1148447,56.5841725 38.9758447,56.0981903 37.8298447,55.6329074 C37.2538447,55.3989159 36.9078447,55.1091266 36.9408447,54.4899492 C37.0858447,51.7270504 37.3156607,50.4280128 37.4456607,47.5931166 C38.2766607,47.4653213 39.7129663,46.9254689 40.4919663,46.7445755 Z" id="Path"></path>
            </g>
            <g id="noun_Hook_1082197" transform="translate(200.395736, 240.468996) rotate(-56.000000) translate(-200.395736, -240.468996) translate(173.895736, 198.968996)" fill="#C3423F">
                <path d="M36.7716399,45.4299565 C37.4892112,45.2440967 38.2159003,45.0227048 38.8732942,44.6892503 C45.7326195,41.2062001 50.2359039,35.7971316 51.8160197,28.2306309 C52.5463559,24.7384699 52.4679428,21.1861778 51.4576899,17.6639513 C50.2805811,13.5568128 48.003865,10.1420934 45.036931,7.2175339 C43.1331331,5.34162483 41.0953035,3.45842714 38.5541709,2.43984223 C32.3969166,-0.0310006073 26.3326639,0.105661054 20.5191508,3.5376909 C19.59187,4.08433755 18.7010603,4.76400154 17.9579591,5.54023978 C13.9096533,9.76581834 12.8237226,14.8906306 13.6397663,20.5174468 C13.8449169,21.9250619 14.2196587,23.3190108 14.6427249,24.6792499 C14.875229,25.4254226 15.3128837,26.1497294 16.4462269,26.3501665 C16.7407321,25.7060345 17.0480021,25.0527918 17.3415955,24.3931715 C19.1897747,20.2395681 21.5303155,16.5132601 25.5594739,14.051528 C29.1327421,11.8667636 32.9321318,11.8813409 36.4342811,13.5322137 C39.9884018,15.2067746 41.7554326,18.7672664 41.9405241,22.5427726 C42.1684692,27.1956466 39.7823394,30.8855115 35.6802385,33.0547876 C32.9138962,34.5152452 29.8475781,35.4254118 26.8797322,36.4786177 C25.9834519,36.7965838 25.3652647,37.2384565 25.0470533,38.1085358 C24.8893152,38.5385645 24.711518,38.9685932 24.607575,39.4131991 C23.6264991,43.6014235 22.4612435,47.7568491 22.430243,52.1099785 C22.4238605,52.9563697 22.3089761,53.802761 22.2487986,54.5990429 C18.2050517,55.5693407 14.6709901,57.1619046 11.4943465,59.5079298 C7.38859853,62.5390854 3.70500493,65.9601823 1.56961479,70.7269411 C1.1036949,71.7637475 0.69795254,72.8515744 0.455418902,73.9594449 C0.0423822938,75.8426426 0.403447408,76.5942817 2.12671273,77.4370286 C5.06720514,78.8783536 8.09066958,80.1866613 11.3101669,80.8125717 C18.5387634,82.2183646 25.8175079,83.2733926 33.2147838,82.4761996 C36.8609944,82.082614 40.4917047,81.543256 44.13518,81.1259824 C46.2131279,80.8891022 47.2853819,79.0851683 47.5589161,77.3532095 C48.1625148,73.5294162 47.6455352,69.7794202 46.4310435,66.1697302 C45.0095775,61.947796 42.0335257,58.9767714 38.1165163,56.9304908 C37.0998809,56.3984214 36.0613628,55.9064395 35.0164622,55.4354123 C34.4912766,55.1985321 34.1758005,54.905165 34.2058893,54.2783435 C34.3380975,51.4813349 34.4456876,48.6834151 34.5642191,45.8135202 C35.3219087,45.6841472 36.0613628,45.6130831 36.7716399,45.4299565 Z" id="Path"></path>
            </g>
            <path d="M24.408471,410.600742 C23.2684653,410.296741 22.2234758,409.916744 21.273471,409.460742 C20.3234663,409.00474 19.354476,408.472745 18.366471,407.864742 L18.366471,404.900742 L42.192471,404.900742 L42.192471,407.750742 C40.596463,408.814747 38.4304847,409.764738 35.694471,410.600742 L50.286471,444.344742 L52.452471,451.412742 L52.680471,451.412742 L54.390471,444.230742 L65.220471,410.600742 C62.9404596,410.14474 60.8504805,409.232749 58.950471,407.864742 L58.950471,404.900742 L78.444471,404.900742 L78.444471,407.864742 C76.848463,408.928747 74.6824847,409.840738 71.946471,410.600742 L54.162471,461.900742 C52.3384619,466.764766 50.6094792,470.697727 48.975471,473.699742 C47.3414629,476.701757 45.7074792,479.076733 44.073471,480.824742 C42.4394629,482.572751 40.7674796,483.845738 39.057471,484.643742 C37.3474625,485.441746 35.5044809,486.03074 33.528471,486.410742 C32.6924668,484.966735 31.9514743,483.370751 31.305471,481.622742 C30.6594678,479.874733 30.1084733,478.20275 29.652471,476.606742 L31.134471,473.870742 L42.990471,473.870742 C43.4464733,473.262739 43.8454693,472.673745 44.187471,472.103742 C44.5294727,471.533739 44.8904691,470.830746 45.270471,469.994742 C45.6504729,469.158738 46.0684687,468.094749 46.524471,466.802742 C46.9804733,465.510736 47.512468,463.876752 48.120471,461.900742 L24.408471,410.600742 Z M123.930471,446.966742 C123.930471,448.63875 123.968471,450.082736 124.044471,451.298742 C124.120471,452.514748 124.196471,453.806735 124.272471,455.174742 L132.138471,456.314742 L132.138471,458.708742 C130.238462,459.696747 128.129483,460.570738 125.811471,461.330742 C123.493459,462.090746 121.270482,462.66074 119.142471,463.040742 L116.292471,463.040742 C115.532467,461.292733 115.076472,459.373753 114.924471,457.283742 C114.77247,455.193732 114.658471,452.894755 114.582471,450.386742 L114.012471,450.386742 C113.70847,451.90675 113.119475,453.445734 112.245471,455.003742 C111.371467,456.56175 110.231478,457.948736 108.825471,459.164742 C107.419464,460.380748 105.766481,461.368738 103.866471,462.128742 C101.966462,462.888746 99.8004832,463.268742 97.368471,463.268742 C92.7324478,463.268742 88.9514857,461.862756 86.025471,459.050742 C83.0994564,456.238728 81.636471,452.552765 81.636471,447.992742 C81.636471,444.496725 82.339464,441.627753 83.745471,439.385742 C85.1514781,437.143731 87.2224573,435.376749 89.958471,434.084742 C92.6944847,432.792736 96.0764509,431.861745 100.104471,431.291742 C104.132491,430.721739 108.806444,430.284744 114.126471,429.980742 C114.430473,426.712726 114.525472,423.767755 114.411471,421.145742 C114.29747,418.523729 113.879475,416.281751 113.157471,414.419742 C112.435467,412.557733 111.371478,411.113747 109.965471,410.087742 C108.559464,409.061737 106.716482,408.548742 104.436471,408.548742 C103.372466,408.548742 102.175478,408.605742 100.845471,408.719742 C99.5154644,408.833743 98.2044775,409.156739 96.912471,409.688742 L91.554471,423.368742 L88.590471,423.368742 C87.8304672,421.088731 87.1654739,418.732754 86.595471,416.300742 C86.0254682,413.86873 85.6644718,411.474754 85.512471,409.118742 C88.4004855,407.370733 91.6114534,406.002747 95.145471,405.014742 C98.6794887,404.026737 102.612449,403.532742 106.944471,403.532742 C110.82049,403.532742 113.917459,404.083737 116.235471,405.185742 C118.553483,406.287748 120.320465,407.712733 121.536471,409.460742 C122.752477,411.208751 123.550469,413.146731 123.930471,415.274742 C124.310473,417.402753 124.500471,419.530731 124.500471,421.658742 C124.500471,426.218765 124.405472,430.607721 124.215471,434.825742 C124.02547,439.043763 123.930471,443.090723 123.930471,446.966742 Z M101.928471,456.200742 C103.828481,456.200742 105.500464,455.820746 106.944471,455.060742 C108.388478,454.300738 109.604466,453.388747 110.592471,452.324742 C111.580471,451.260737 112.378468,450.177748 112.986471,449.075742 C113.594474,447.973737 114.01247,447.042746 114.240471,446.282742 L114.240471,434.312742 C109.832449,434.312742 106.222485,434.54074 103.410471,434.996742 C100.598457,435.452744 98.394479,436.174737 96.798471,437.162742 C95.202463,438.150747 94.1004741,439.385735 93.492471,440.867742 C92.884468,442.34975 92.580471,444.040733 92.580471,445.940742 C92.580471,449.208758 93.4164627,451.735733 95.088471,453.521742 C96.7604794,455.307751 99.0404566,456.200742 101.928471,456.200742 Z M162.576471,413.450742 C161.740467,413.906744 160.695477,414.837735 159.441471,416.243742 C158.187465,417.649749 157.066476,419.720728 156.078471,422.456742 L156.078471,456.314742 C157.598479,456.466743 159.118463,456.75174 160.638471,457.169742 C162.158479,457.587744 163.678463,458.214738 165.198471,459.050742 L165.198471,461.900742 L138.294471,461.900742 L138.294471,459.050742 C139.662478,458.290738 140.954465,457.720744 142.170471,457.340742 C143.386477,456.96074 144.602465,456.618744 145.818471,456.314742 L145.818471,411.512742 L138.294471,410.600742 L138.294471,407.636742 C140.726483,406.572737 143.234458,405.717745 145.818471,405.071742 C148.402484,404.425739 150.872459,403.912744 153.228471,403.532742 L156.078471,403.532742 L156.078471,415.616742 L156.534471,415.616742 C157.218474,414.096735 158.187465,412.57675 159.441471,411.056742 C160.695477,409.536735 162.139463,408.168748 163.773471,406.952742 C165.407479,405.736736 167.193461,404.805745 169.131471,404.159742 C171.069481,403.513739 173.064461,403.304741 175.116471,403.532742 C175.648474,404.520747 176.123469,405.603736 176.541471,406.781742 C176.959473,407.959748 177.358469,409.194736 177.738471,410.486742 L177.738471,413.450742 L162.576471,413.450742 Z M206.694471,403.532742 C210.798492,403.532742 214.256457,403.931738 217.068471,404.729742 C219.880485,405.527746 222.236462,406.762734 224.136471,408.434742 C228.620493,405.394727 233.294447,403.190749 238.158471,401.822742 C238.766474,402.658746 239.20347,403.684736 239.469471,404.900742 C239.735472,406.116748 239.868471,407.256737 239.868471,408.320742 L238.386471,411.056742 L226.416471,411.056742 C228.316481,413.792756 229.266471,417.40272 229.266471,421.886742 C229.266471,427.358769 227.34749,431.804725 223.509471,435.224742 C219.671452,438.644759 214.066508,440.354742 206.694471,440.354742 C205.250464,440.354742 204.072476,440.316742 203.160471,440.240742 C202.248466,440.164742 201.222477,440.050743 200.082471,439.898742 C199.702469,440.582746 199.265473,441.342738 198.771471,442.178742 C198.277469,443.014746 198.030471,443.888738 198.030471,444.800742 C198.030471,446.32075 198.904462,447.517738 200.652471,448.391742 C202.40048,449.265746 204.585458,450.044739 207.207471,450.728742 C209.829484,451.412746 212.679456,452.115738 215.757471,452.837742 C218.835486,453.559746 221.704458,454.547736 224.364471,455.801742 C227.024484,457.055748 229.247462,458.689732 231.033471,460.703742 C232.81948,462.717752 233.750471,465.320726 233.826471,468.512742 C233.902471,471.248756 233.275478,473.718731 231.945471,475.922742 C230.615464,478.126753 228.772483,479.969735 226.416471,481.451742 C224.060459,482.93375 221.229488,484.073738 217.923471,484.871742 C214.617454,485.669746 210.988491,486.068742 207.036471,486.068742 C198.75243,486.068742 192.501492,484.662756 188.283471,481.850742 C184.06545,479.038728 181.956471,475.504763 181.956471,471.248742 C181.956471,469.196732 182.279468,467.41075 182.925471,465.890742 C183.571474,464.370735 184.502465,463.040748 185.718471,461.900742 C186.934477,460.760736 188.454462,459.753746 190.278471,458.879742 C192.10248,458.005738 194.192459,457.188746 196.548471,456.428742 C194.876463,455.668738 193.489477,454.623749 192.387471,453.293742 C191.285466,451.963735 190.734471,450.348752 190.734471,448.448742 C190.734471,446.700733 191.475464,444.971751 192.957471,443.261742 C194.439478,441.551734 195.940463,440.202747 197.460471,439.214742 C193.128449,438.074736 189.803483,435.908758 187.485471,432.716742 C185.167459,429.524726 184.008471,425.914762 184.008471,421.886742 C184.008471,419.302729 184.502466,416.889753 185.490471,414.647742 C186.478476,412.405731 187.922462,410.44875 189.822471,408.776742 C191.722481,407.104734 194.078457,405.812747 196.890471,404.900742 C199.702485,403.988738 202.970452,403.532742 206.694471,403.532742 Z M223.566471,471.134742 C223.566471,468.70273 222.749479,466.764749 221.115471,465.320742 C219.481463,463.876735 217.448483,462.698747 215.016471,461.786742 C212.584459,460.874738 209.962485,460.114745 207.150471,459.506742 C204.338457,458.898739 201.716483,458.214746 199.284471,457.454742 C196.396457,459.202751 194.496476,461.045732 193.584471,462.983742 C192.672466,464.921752 192.216471,466.916732 192.216471,468.968742 C192.216471,472.996762 193.660457,476.017732 196.548471,478.031742 C199.436485,480.045752 203.616444,481.052742 209.088471,481.052742 C211.900485,481.052742 214.237462,480.786745 216.099471,480.254742 C217.96148,479.722739 219.443466,479.019746 220.545471,478.145742 C221.647477,477.271738 222.426469,476.226748 222.882471,475.010742 C223.338473,473.794736 223.566471,472.502749 223.566471,471.134742 Z M194.268471,421.886742 C194.268471,423.710751 194.477469,425.439734 194.895471,427.073742 C195.313473,428.70775 195.997466,430.132736 196.947471,431.348742 C197.897476,432.564748 199.170463,433.533738 200.766471,434.255742 C202.362479,434.977746 204.338459,435.338742 206.694471,435.338742 C211.102493,435.338742 214.256462,434.046755 216.156471,431.462742 C218.056481,428.878729 219.006471,425.686761 219.006471,421.886742 C219.006471,417.782722 218.07548,414.533754 216.213471,412.139742 C214.351462,409.74573 211.178493,408.548742 206.694471,408.548742 C202.058448,408.548742 198.82848,409.707731 197.004471,412.025742 C195.180462,414.343754 194.268471,417.630721 194.268471,421.886742 Z M272.130471,448.904742 C272.130471,446.776731 271.465478,444.97175 270.135471,443.489742 C268.805464,442.007735 267.114481,440.620749 265.062471,439.328742 C263.010461,438.036736 260.825483,436.782748 258.507471,435.566742 C256.189459,434.350736 254.004481,432.92575 251.952471,431.291742 C249.900461,429.657734 248.209478,427.776753 246.879471,425.648742 C245.549464,423.520731 244.884471,420.898758 244.884471,417.782742 C244.884471,415.730732 245.359466,413.830751 246.309471,412.082742 C247.259476,410.334733 248.532463,408.833748 250.128471,407.579742 C251.724479,406.325736 253.58646,405.337746 255.714471,404.615742 C257.842482,403.893738 260.122459,403.532742 262.554471,403.532742 C266.658492,403.532742 270.021458,403.76074 272.643471,404.216742 C275.265484,404.672744 277.792459,405.318738 280.224471,406.154742 C279.92047,408.586754 279.559473,411.03773 279.141471,413.507742 C278.723469,415.977754 278.134475,418.504729 277.374471,421.088742 L274.524471,421.088742 L270.192471,409.460742 C269.280466,409.08074 268.254477,408.833743 267.114471,408.719742 C265.974465,408.605742 264.796477,408.548742 263.580471,408.548742 C262.212464,408.548742 261.015476,408.79574 259.989471,409.289742 C258.963466,409.783745 258.089475,410.410738 257.367471,411.170742 C256.645467,411.930746 256.094473,412.804737 255.714471,413.792742 C255.334469,414.780747 255.144471,415.768737 255.144471,416.756742 C255.144471,418.808752 255.809464,420.575735 257.139471,422.057742 C258.469478,423.53975 260.160461,424.907736 262.212471,426.161742 C264.264481,427.415748 266.449459,428.650736 268.767471,429.866742 C271.085483,431.082748 273.270461,432.450735 275.322471,433.970742 C277.374481,435.49075 279.065464,437.257732 280.395471,439.271742 C281.725478,441.285752 282.390471,443.698728 282.390471,446.510742 C282.390471,449.094755 281.839477,451.412732 280.737471,453.464742 C279.635466,455.516752 278.115481,457.264735 276.177471,458.708742 C274.239461,460.152749 271.997484,461.273738 269.451471,462.071742 C266.905458,462.869746 264.188485,463.268742 261.300471,463.268742 C258.032455,463.268742 255.030485,462.983745 252.294471,462.413742 C249.558457,461.843739 246.708486,461.026747 243.744471,459.962742 C243.896472,457.226728 244.238468,454.585755 244.770471,452.039742 C245.302474,449.493729 245.986467,447.042754 246.822471,444.686742 L249.672471,444.686742 L254.688471,457.112742 C255.524475,457.720745 256.531465,458.062742 257.709471,458.138742 C258.887477,458.214742 259.970466,458.252742 260.958471,458.252742 C264.302488,458.252742 267.000461,457.340751 269.052471,455.516742 C271.104481,453.692733 272.130471,451.488755 272.130471,448.904742 Z" id="yargs" fill="#941100"></path>
            <path d="M93.3997061,65.906 C92.779703,65.7406658 92.2113753,65.5340012 91.6947061,65.286 C91.1780368,65.0379988 90.6510421,64.7486683 90.1137061,64.418 L90.1137061,62 L106.419706,62 L106.419706,64.356 C105.551702,64.9346696 104.373713,65.4513311 102.885706,65.906 L109.147706,81.468 L110.201706,85.436 L110.325706,85.436 L111.317706,81.406 L116.153706,65.906 C114.9137,65.6579988 113.777045,65.1620037 112.743706,64.418 L112.743706,62 L124.709706,62 L124.709706,64.418 C123.841702,64.9966696 122.663713,65.4926646 121.175706,65.906 L111.069706,93 C110.077701,95.6453466 109.085711,97.8049916 108.093706,99.479 C107.101701,101.153008 106.109711,102.485995 105.117706,103.478 C104.125701,104.470005 103.133711,105.162331 102.141706,105.555 C101.149701,105.947669 100.157711,106.205999 99.1657061,106.33 C98.7523707,105.957998 98.3803744,105.493003 98.0497061,104.935 C97.7190377,104.376997 97.4297073,103.77767 97.1817061,103.137 C96.9337048,102.49633 96.7270402,101.845337 96.5617061,101.184 C96.3963719,100.522663 96.2930396,99.9026696 96.2517061,99.324 L97.0577061,97.836 L104.621706,97.836 C104.993708,97.2573304 105.314038,96.6373366 105.582706,95.976 C105.851374,95.3146634 106.171704,94.3226733 106.543706,93 L93.3997061,65.906 Z" id="y" fill="#FFFFFF" transform="translate(107.411706, 84.165000) rotate(-20.000000) translate(-107.411706, -84.165000) "></path>
        </g>
    </g>
</svg>